<mxfile host="app.diagrams.net" agent="Mozilla/5.0 (X11; Linux x86_64) AppleWebKit/537.36 (KHTML, like Gecko) Chrome/130.0.0.0 Safari/537.36" version="26.0.8">
  <diagram name="Page-1" id="cTtth-25DqAywjtLYFPc">
    <mxGraphModel dx="821" dy="704" grid="1" gridSize="10" guides="1" tooltips="1" connect="1" arrows="1" fold="1" page="1" pageScale="1" pageWidth="850" pageHeight="1100" math="0" shadow="0">
      <root>
        <mxCell id="0" />
        <mxCell id="1" parent="0" />
        <mxCell id="2s1bZt4InJpNb5cErv6s-1" value="" style="endArrow=none;html=1;rounded=0;" edge="1" parent="1">
          <mxGeometry width="50" height="50" relative="1" as="geometry">
            <mxPoint x="180" y="480" as="sourcePoint" />
            <mxPoint x="180" y="160" as="targetPoint" />
          </mxGeometry>
        </mxCell>
        <mxCell id="2s1bZt4InJpNb5cErv6s-2" value="" style="endArrow=none;html=1;rounded=0;" edge="1" parent="1">
          <mxGeometry width="50" height="50" relative="1" as="geometry">
            <mxPoint x="180" y="480" as="sourcePoint" />
            <mxPoint x="720" y="480" as="targetPoint" />
          </mxGeometry>
        </mxCell>
        <mxCell id="2s1bZt4InJpNb5cErv6s-4" value="" style="endArrow=none;html=1;rounded=0;edgeStyle=orthogonalEdgeStyle;curved=1;strokeColor=#777777;" edge="1" parent="1">
          <mxGeometry width="50" height="50" relative="1" as="geometry">
            <mxPoint x="720" y="160" as="sourcePoint" />
            <mxPoint x="190" y="470" as="targetPoint" />
          </mxGeometry>
        </mxCell>
        <mxCell id="2s1bZt4InJpNb5cErv6s-6" value="" style="endArrow=none;html=1;rounded=0;edgeStyle=orthogonalEdgeStyle;curved=1;strokeColor=#777777;" edge="1" parent="1">
          <mxGeometry width="50" height="50" relative="1" as="geometry">
            <mxPoint x="180" y="480" as="sourcePoint" />
            <mxPoint x="190" y="470" as="targetPoint" />
          </mxGeometry>
        </mxCell>
        <mxCell id="2s1bZt4InJpNb5cErv6s-7" value="" style="endArrow=none;dashed=1;html=1;strokeWidth=2;rounded=0;strokeColor=#C4C4C4;" edge="1" parent="1">
          <mxGeometry width="50" height="50" relative="1" as="geometry">
            <mxPoint x="180" y="230" as="sourcePoint" />
            <mxPoint x="720" y="230" as="targetPoint" />
          </mxGeometry>
        </mxCell>
        <mxCell id="2s1bZt4InJpNb5cErv6s-8" value="" style="endArrow=none;dashed=1;html=1;strokeWidth=2;rounded=0;strokeColor=#C4C4C4;" edge="1" parent="1">
          <mxGeometry width="50" height="50" relative="1" as="geometry">
            <mxPoint x="180" y="160" as="sourcePoint" />
            <mxPoint x="720" y="160" as="targetPoint" />
          </mxGeometry>
        </mxCell>
        <mxCell id="2s1bZt4InJpNb5cErv6s-9" value="" style="endArrow=none;html=1;rounded=0;strokeColor=#777777;fillColor=#777777;" edge="1" parent="1">
          <mxGeometry width="50" height="50" relative="1" as="geometry">
            <mxPoint x="720" y="480" as="sourcePoint" />
            <mxPoint x="720" y="160" as="targetPoint" />
          </mxGeometry>
        </mxCell>
        <mxCell id="2s1bZt4InJpNb5cErv6s-15" value="80%" style="text;html=1;align=center;verticalAlign=middle;whiteSpace=wrap;rounded=0;fontFamily=Helvetica;fontSize=12;fontColor=default;" vertex="1" parent="1">
          <mxGeometry x="130" y="220" width="40" height="20" as="geometry" />
        </mxCell>
        <mxCell id="2s1bZt4InJpNb5cErv6s-16" value="100%" style="text;html=1;align=center;verticalAlign=middle;whiteSpace=wrap;rounded=0;fontFamily=Helvetica;fontSize=12;fontColor=default;" vertex="1" parent="1">
          <mxGeometry x="130" y="150" width="40" height="20" as="geometry" />
        </mxCell>
        <mxCell id="2s1bZt4InJpNb5cErv6s-17" value="" style="endArrow=none;dashed=1;html=1;strokeWidth=2;rounded=0;strokeColor=#C4C4C4;" edge="1" parent="1">
          <mxGeometry width="50" height="50" relative="1" as="geometry">
            <mxPoint x="180" y="420" as="sourcePoint" />
            <mxPoint x="720" y="420" as="targetPoint" />
          </mxGeometry>
        </mxCell>
        <mxCell id="2s1bZt4InJpNb5cErv6s-18" value="20%" style="text;html=1;align=center;verticalAlign=middle;whiteSpace=wrap;rounded=0;fontFamily=Helvetica;fontSize=12;fontColor=default;" vertex="1" parent="1">
          <mxGeometry x="130" y="410" width="40" height="20" as="geometry" />
        </mxCell>
      </root>
    </mxGraphModel>
  </diagram>
</mxfile>
